<svg xmlns="http://www.w3.org/2000/svg" width="1200" height="630" viewBox="0 0 1200 630" fill="none">
  <defs>
    <linearGradient id="bg" x1="0" y1="0" x2="1200" y2="630" gradientUnits="userSpaceOnUse">
      <stop offset="0%" stop-color="#1a1208"/>
      <stop offset="45%" stop-color="#3d2814"/>
      <stop offset="100%" stop-color="#ff6b00"/>
    </linearGradient>
    <radialGradient id="glow" cx="0" cy="0" r="1" gradientUnits="userSpaceOnUse" gradientTransform="translate(900 180) rotate(90) scale(320)">
      <stop offset="0%" stop-color="#ffb347" stop-opacity="0.45"/>
      <stop offset="100%" stop-color="#ffb347" stop-opacity="0"/>
    </radialGradient>
  </defs>
  <rect width="1200" height="630" fill="url(#bg)"/>
  <rect width="1200" height="630" fill="url(#glow)"/>
  <ellipse cx="620" cy="340" rx="220" ry="70" fill="#000" fill-opacity="0.25"/>
  <circle cx="620" cy="310" r="155" fill="#faf8f5" fill-opacity="0.12" stroke="#fff" stroke-opacity="0.2" stroke-width="2"/>
  <ellipse cx="420" cy="360" rx="90" ry="28" fill="#000" fill-opacity="0.2"/>
  <path d="M330 360c0-55 40-95 90-95s90 40 90 95" fill="#ff6b00" fill-opacity="0.35" stroke="#fff" stroke-opacity="0.25" stroke-width="2"/>
  <path d="M390 220c10-30 10-50 0-80M420 210c8-25 8-42 0-68M450 225c10-28 10-48 0-75" stroke="#fff" stroke-opacity="0.35" stroke-width="3" stroke-linecap="round"/>
  <rect x="80" y="52" width="56" height="56" rx="15" fill="#1a1208" fill-opacity="0.35" stroke="#fff" stroke-opacity="0.2" stroke-width="1.5"/>
  <path d="M96 88c0-8 6-14 12-14s12 6 12 14" fill="#ff6b00" fill-opacity="0.45" stroke="#fff" stroke-opacity="0.5" stroke-width="1.5"/>
  <path d="M104 68c2-6 2-10 0-16M112 66c1.5-5 1.5-8 0-13M120 69c2-5.5 2-9 0-14.5" stroke="#fff" stroke-opacity="0.55" stroke-width="2" stroke-linecap="round"/>
  <text x="152" y="108" fill="#ffffff" font-family="Georgia, 'Times New Roman', serif" font-size="72" font-weight="500" letter-spacing="-1">flavoriz</text>
  <text x="152" y="155" fill="#ffffff" fill-opacity="0.75" font-family="system-ui, -apple-system, sans-serif" font-size="24" letter-spacing="0.2em">DISCOVER &#183; COOK &#183; SAVOR</text>
  <text x="80" y="540" fill="#ffffff" fill-opacity="0.9" font-family="system-ui, -apple-system, sans-serif" font-size="36" font-weight="600">Recipes worth craving.</text>
  <text x="80" y="580" fill="#ffffff" fill-opacity="0.55" font-family="system-ui, -apple-system, sans-serif" font-size="22">Netflix for food. Pinterest for discovery.</text>
</svg>
